<?xml version="1.0" encoding="utf-8"?>
<svg version="1.1" xmlns:xlink="http://www.w3.org/1999/xlink" width="140px" height="40px" xmlns="http://www.w3.org/2000/svg">
  <defs>
    <mask fill="white" id="clip8">
      <path d="M 0 35  L 0 5  C 0 2.1999999999999886  2.200000000000003 0  5 0  L 69.33333333333212 0  L 135 0  C 137.8 0  140 2.1999999999999886  140 5  L 140 35  C 140 37.80000000000001  137.8 40  135 40  L 5 40  C 2.200000000000003 40  0 37.80000000000001  0 35  Z " fill-rule="evenodd" />
    </mask>
  </defs>
  <g transform="matrix(1 0 0 1 -295 -338 )">
    <path d="M 0 35  L 0 5  C 0 2.1999999999999886  2.200000000000003 0  5 0  L 69.33333333333212 0  L 135 0  C 137.8 0  140 2.1999999999999886  140 5  L 140 35  C 140 37.80000000000001  137.8 40  135 40  L 5 40  C 2.200000000000003 40  0 37.80000000000001  0 35  Z " fill-rule="nonzero" fill="#ffffff" stroke="none" transform="matrix(1 0 0 1 295 338 )" />
    <path d="M 0 35  L 0 5  C 0 2.1999999999999886  2.200000000000003 0  5 0  L 69.33333333333212 0  L 135 0  C 137.8 0  140 2.1999999999999886  140 5  L 140 35  C 140 37.80000000000001  137.8 40  135 40  L 5 40  C 2.200000000000003 40  0 37.80000000000001  0 35  Z " stroke-width="2" stroke="#797979" fill="none" transform="matrix(1 0 0 1 295 338 )" mask="url(#clip8)" />
  </g>
</svg>